<svg class="c-header__logo" width="179" height="24" viewBox="0 0 179 24" fill="none" xmlns="http://www.w3.org/2000/svg">
          <title>Logo</title>
          <path d="M43.5816 8.81445H32.8142C32.2794 9.73809 31.9717 10.8116 31.9717 11.9553C31.9717 12.8632 32.1664 13.7264 32.5137 14.5062H43.8796C44.233 13.7107 44.4253 12.8451 44.4253 11.9553C44.4253 10.8116 44.1176 9.73809 43.5828 8.81445" fill="#F08200"></path>
          <path d="M41.9855 16.9245C40.9063 17.7563 39.5758 18.2205 38.1973 18.2205C36.6301 18.2205 35.1963 17.6329 34.1014 16.667C33.4283 16.0734 32.8839 15.3384 32.5137 14.5078H26.5874C26.7509 15.2562 26.9816 15.9791 27.2761 16.667C29.0969 20.9237 33.3058 23.9134 38.1973 23.9134C41.5553 23.9134 44.7702 22.4748 47.0213 19.9662C47.1667 19.8054 47.3061 19.6386 47.4407 19.4705L41.9855 16.9257V16.9245Z" fill="#F08200"></path>
          <path d="M32.814 8.81445H26.7315C26.4598 9.81425 26.3132 10.8636 26.312 11.9468V11.9662C26.312 12.8378 26.4094 13.6877 26.5872 14.5074H32.5136C32.1662 13.7276 31.9715 12.8644 31.9715 11.9565C31.9715 10.8128 32.2804 9.7393 32.814 8.81566" fill="#E63615"></path>
          <path d="M44.4252 11.9553C44.4252 12.8451 44.2329 13.7095 43.8796 14.5062H49.8071C49.9874 13.6744 50.0836 12.8197 50.0836 11.9553C50.0836 10.8685 49.9357 9.81546 49.6641 8.81445H43.5815C44.1164 9.73809 44.424 10.8104 44.424 11.9553" fill="#E63615"></path>
          <path d="M11.8851 5.69172C13.4439 5.69172 14.8717 6.27322 15.9654 7.2295C17.2778 8.37679 18.1107 10.0669 18.1119 11.9504V1.77715C17.4377 1.35765 16.7202 1.00463 15.9654 0.725368C14.6963 0.257506 13.3273 0.00120895 11.9007 0H11.8707C5.32421 0.00725368 0 5.36772 0 11.9553C0 18.5428 5.33142 23.9105 11.8851 23.9105C13.3177 23.9105 14.6926 23.6542 15.9654 23.1852C16.7202 22.9071 17.4389 22.5529 18.1119 22.1334V11.9601C18.1095 13.8424 17.2778 15.5325 15.9654 16.681C14.8717 17.6373 13.4451 18.2176 11.8851 18.2176C8.45143 18.2176 5.65832 15.408 5.65832 11.9541C5.65832 8.5001 8.45143 5.69051 11.8851 5.69051" fill="#F08200"></path>
          <path d="M18.1118 1.77715C21.5022 3.88434 23.7689 7.65626 23.7701 11.9504V0H18.1118V1.77715Z" fill="#F08200"></path>
          <path d="M18.1118 22.1332V23.9999H23.7701V11.96C23.7677 16.2553 21.5022 20.0261 18.1118 22.1332Z" fill="#F08200"></path>
          <path d="M18.1118 1.77734V22.1348C21.5022 20.0276 23.7689 16.2557 23.7701 11.9603V11.9518C23.7677 7.65766 21.5022 3.88575 18.1118 1.77855" fill="#E63615"></path>
          <path d="M48.8467 6.65404C46.9009 2.71408 42.8603 0 38.1971 0C33.5339 0 29.4945 2.71408 27.5487 6.65404C27.2098 7.33951 26.9346 8.06246 26.7314 8.81322H32.814C33.3224 7.93673 34.0351 7.19444 34.8872 6.65404C35.8475 6.04473 36.982 5.69172 38.1971 5.69172C39.4122 5.69172 40.5479 6.04594 41.507 6.65404C42.3603 7.19444 43.073 7.93673 43.5802 8.81322H49.6628C49.4597 8.06246 49.1857 7.33951 48.8467 6.65404Z" fill="#F08200"></path>
          <path d="M92.3395 4.39331H99.3379V0.458191C93.0089 0.458191 75.0052 0.431594 75.0052 0.431594C71.0883 0.616563 66.99 2.50373 66.99 6.88616C66.99 11.8803 71.1508 13.0893 75.6602 13.6297C78.5927 13.9476 80.7681 14.8072 80.7681 16.9059C80.7681 19.3238 78.3091 20.2462 75.6914 20.2462C73.0738 20.2462 70.4586 19.1654 69.4803 16.7161L66.0117 18.5283C67.6522 22.6 71.1196 24 75.6277 24C80.5457 24 84.8964 21.8686 84.8964 16.9059C84.8964 11.5938 80.6082 10.3848 76.0063 9.81181C73.3586 9.49385 71.0871 8.95345 71.0871 7.0131C71.0871 5.53697 72.3323 4.47068 74.784 4.23252L88.1751 4.3921V23.4076H92.3371V4.39331H92.3395ZM121.881 13.6381V0.490832H117.751V13.6381C117.751 17.5732 115.796 19.9657 112.36 19.9657C108.924 19.9657 106.654 17.7691 106.654 13.6381V0.490832H102.524V13.6381C102.524 20.5569 107.032 23.9009 112.329 23.9009C117.625 23.9009 121.881 20.4251 121.881 13.6381ZM141.238 11.705C141.333 15.4431 139.346 19.2464 134.335 19.2464H129.794V4.55773H134.335C139.126 4.55773 141.144 8.13016 141.238 11.705ZM145.369 11.7365C145.274 6.06407 141.9 0.458191 134.335 0.458191H125.664V23.4088H134.335C142.059 23.4088 145.464 17.5406 145.369 11.7365ZM148.49 23.4088H152.62V0.458191H148.49V23.4088ZM174.784 12.1306C174.72 15.9013 172.766 19.967 167.565 19.967C162.363 19.967 160.408 15.9339 160.313 12.1632C160.219 8.29458 162.362 3.93391 167.565 3.93391C172.767 3.93391 174.848 8.26194 174.784 12.1306ZM178.882 12.0653C178.945 6.06407 175.163 0 167.565 0C159.967 0 156.214 6.06528 156.214 12.0979C156.214 18.1306 159.808 23.9335 167.565 23.9335C175.321 23.9335 178.82 17.9988 178.884 12.0653" fill="#E63615"></path>
          <path d="M58.0771 0V24" stroke="#E63615" stroke-width="1.05"></path>
        </svg>
